<svg width="512" height="512" viewBox="0 0 512 512" fill="none" xmlns="http://www.w3.org/2000/svg">
  <rect width="512" height="512" rx="64" fill="#2563eb"/>
  <path d="M128 256C128 185.3 185.3 128 256 128C326.7 128 384 185.3 384 256C384 326.7 326.7 384 256 384C185.3 384 128 326.7 128 256Z" fill="white" fill-opacity="0.1"/>
  <rect x="192" y="192" width="128" height="16" rx="8" fill="white"/>
  <rect x="192" y="224" width="96" height="16" rx="8" fill="white" fill-opacity="0.8"/>
  <rect x="192" y="256" width="112" height="16" rx="8" fill="white" fill-opacity="0.6"/>
  <rect x="192" y="288" width="80" height="16" rx="8" fill="white" fill-opacity="0.4"/>
  <circle cx="160" cy="240" r="24" fill="white"/>
  <path d="M151 240L158 247L169 236" stroke="#2563eb" stroke-width="2" stroke-linecap="round" stroke-linejoin="round"/>
  <rect x="352" y="216" width="32" height="48" rx="4" fill="white" fill-opacity="0.3"/>
  <text x="256" y="360" font-family="system-ui, -apple-system, sans-serif" font-size="24" font-weight="600" text-anchor="middle" fill="white">TII</text>
</svg>